PathFileType	4	(X/Y/Z)	C:/Users/opensim2020/Desktop/walking_exp_matlab/subject02_walking06_straight_01.trc	
DataRate	CameraRate	NumFrames	NumMarkers	Units	OrigDataRate	OrigDataStartFrame	OrigNumFrames	
100.00	100.00	7	41	mm	100.00	831	205	
Frame#	Time	LFHD			RFHD			LBHD			RBHD			C7			T10			CLAV			STRN			RBAK			LSHO			LUPA			LELB			LFRM			LWRA			LWRB			LFIN			RSHO			RUPA			RELB			RFRM			RWRA			RWRB			RFIN			LASI			RASI			LPSI			RPSI			LTHI			LKNE			LTIB			LANK			LHEE			LTOE			RTHI			RKNE			RTIB			RANK			RHEE			RTOE			*39			*40			
		X1	Y1	Z1	X2	Y2	Z2	X3	Y3	Z3	X4	Y4	Z4	X5	Y5	Z5	X6	Y6	Z6	X7	Y7	Z7	X8	Y8	Z8	X9	Y9	Z9	X10	Y10	Z10	X11	Y11	Z11	X12	Y12	Z12	X13	Y13	Z13	X14	Y14	Z14	X15	Y15	Z15	X16	Y16	Z16	X17	Y17	Z17	X18	Y18	Z18	X19	Y19	Z19	X20	Y20	Z20	X21	Y21	Z21	X22	Y22	Z22	X23	Y23	Z23	X24	Y24	Z24	X25	Y25	Z25	X26	Y26	Z26	X27	Y27	Z27	X28	Y28	Z28	X29	Y29	Z29	X30	Y30	Z30	X31	Y31	Z31	X32	Y32	Z32	X33	Y33	Z33	X34	Y34	Z34	X35	Y35	Z35	X36	Y36	Z36	X37	Y37	Z37	X38	Y38	Z38	X39	Y39	Z39	X40	Y40	Z40	X41	Y41	Z41	

77	0.760	1414.79797	-374.25098	1728.68030	1558.06177	-375.66260	1709.85803	1403.03979	-491.51813	1635.62610	1544.03516	-505.68759	1613.72607	1473.55273	-536.73853	1505.78540	1475.15686	-604.11365	1235.31348	1464.56421	-399.05624	1433.40930	1482.73694	-357.22501	1258.22180	1541.99512	-604.22791	1340.96094	1294.19470	-463.58859	1474.82373	1210.52075	-529.07782	1290.50623	1196.66187	-576.38916	1159.35315	1173.92749	-612.63568	1033.62158	1187.26343	-598.78412	894.49677	1161.88745	-645.46332	915.02759	1153.50977	-649.10333	848.22772	1658.88135	-456.75473	1475.79370	1756.59900	-455.13605	1291.58411	1787.40137	-402.64029	1153.68201	1797.33081	-328.20993	1056.52283	1765.45532	-237.72632	960.36090	1804.38513	-273.11710	938.43060	1800.58325	-212.47704	899.98108	1365.49683	-357.56479	967.39526	1621.46155	-399.60535	948.75970	1413.65247	-577.95953	1013.36169	1525.57544	-600.46881	1013.37488	1289.08960	-351.98859	669.93512	1324.17139	-316.20276	473.86050	1320.94214	-305.86163	279.59488	1347.56531	-222.00354	70.07436	1400.12781	-244.94823	32.09053	1338.54309	-66.64674	82.59592	1659.85522	-550.97278	658.79395	1618.62268	-601.82983	454.75027	1613.75159	-709.59424	298.41321	1569.89783	-794.15485	124.19475	1511.41541	-841.06250	83.49233	1582.49670	-662.52661	31.95387	1501.92908	-486.74362	1778.30737	-3360.21313	2845.10889	1033.97205 
78	0.770	1413.12170	-364.90683	1728.05518	1556.37024	-366.33783	1709.16602	1401.26086	-481.78244	1634.49451	1541.90491	-496.16238	1612.48669	1471.62354	-526.70319	1504.51855	1473.08362	-592.69391	1233.58044	1462.83508	-388.65173	1432.78967	1481.11523	-345.94681	1257.85059	1539.96643	-593.63342	1339.32068	1292.38538	-453.11215	1473.93811	1208.72974	-518.36627	1289.20349	1195.32129	-564.51056	1157.78882	1172.58533	-601.08789	1032.28394	1186.23389	-587.76367	892.86188	1160.30725	-634.41516	913.78735	1151.99109	-638.54242	847.05084	1657.07617	-446.83090	1475.00159	1754.72974	-445.94534	1290.71606	1785.68811	-394.15408	1152.59338	1795.28174	-319.32739	1055.55420	1762.93237	-228.64319	959.81415	1801.78931	-263.85791	937.65302	1797.82361	-203.03026	899.44531	1363.73547	-344.77414	967.11322	1619.94116	-387.63589	947.89893	1411.45740	-565.50989	1012.02600	1523.26379	-588.16028	1012.12274	1287.69385	-340.00412	668.85016	1323.25049	-305.60883	472.14548	1319.99231	-298.65915	277.51923	1347.94397	-219.53960	66.43421	1399.73279	-243.95586	30.26755	1340.20569	-63.77860	76.04347	1659.29553	-540.96857	658.68237	1619.38281	-592.81030	454.60297	1614.37268	-703.46014	300.52307	1571.08923	-791.63055	128.10551	1512.48840	-838.97620	88.75235	1582.93091	-662.15173	31.89741	1500.31140	-477.65350	1777.19971	-3357.36646	2845.90479	1034.00952 
79	0.780	1411.32605	-355.57391	1727.52466	1554.60779	-357.01498	1708.56653	1399.41760	-472.09555	1633.43152	1540.01648	-486.42950	1611.32886	1469.57458	-516.73108	1503.26550	1470.88708	-581.30573	1231.92725	1460.96790	-378.11414	1432.19421	1479.38086	-334.48196	1257.58521	1537.31250	-582.55731	1337.23694	1290.42029	-442.61255	1473.07629	1206.99463	-506.69684	1287.65527	1193.86841	-552.80182	1156.22705	1171.24536	-588.86279	1030.72510	1184.93457	-576.38580	891.38379	1158.93994	-622.32031	912.36823	1150.67285	-626.89209	845.80115	1655.02319	-437.33868	1474.09485	1752.80615	-436.84683	1289.90100	1783.99927	-385.87363	1151.50134	1793.15723	-310.86923	1054.52917	1760.43738	-219.79863	959.22839	1799.23120	-254.88405	936.77917	1794.95935	-193.95029	898.72394	1361.85767	-331.97711	966.91620	1618.15808	-375.29706	947.07318	1409.03137	-552.81104	1010.59552	1520.79175	-575.64905	1010.81494	1286.58386	-327.65372	667.66046	1321.36536	-295.77637	470.39011	1320.07593	-291.87415	275.59491	1349.31360	-216.14763	65.06995	1401.57312	-240.92189	32.09709	1339.11243	-58.39774	65.84549	1658.81433	-530.37500	658.58740	1620.56494	-582.83228	454.86267	1615.21106	-697.03064	302.91528	1572.35767	-788.65381	132.33524	1513.64294	-836.47302	94.49029	1583.42017	-661.78619	31.90594	1498.27637	-468.75839	1776.01843	-3360.37061	2845.17847	1033.90771 
80	0.790	1409.54932	-346.20392	1727.51086	1552.81970	-347.62943	1708.42896	1397.47705	-462.19943	1632.73694	1538.38208	-476.35260	1610.49695	1467.23853	-506.87784	1502.05957	1468.42017	-570.00714	1231.15979	1458.96887	-367.47046	1431.79968	1477.52319	-323.18988	1257.69543	1534.96570	-572.18195	1336.65747	1288.25305	-432.06323	1472.27747	1205.38867	-494.62439	1286.02563	1192.36536	-540.72980	1154.65259	1169.83594	-576.75574	1029.15442	1183.95020	-563.72064	890.08624	1157.57324	-609.79187	910.70538	1149.30591	-614.65491	843.99066	1653.14978	-427.71158	1473.36963	1750.94922	-427.80090	1289.06238	1782.21631	-377.72424	1150.43140	1791.07666	-302.44019	1053.43970	1758.05920	-211.14449	958.67395	1796.67859	-246.20889	935.86249	1792.06909	-185.29189	897.92206	1360.06433	-319.37381	966.90906	1616.21887	-362.54117	946.29254	1406.32959	-540.00006	1009.37445	1518.17419	-563.09344	1009.48230	1285.36121	-315.93439	667.72852	1319.33252	-287.50003	469.64438	1321.42554	-284.02206	274.41431	1347.48584	-210.45888	65.91801	1400.28149	-236.94513	34.46525	1338.01257	-51.45529	58.32531	1658.53711	-519.30121	658.39905	1621.45288	-572.46521	454.85361	1616.02795	-689.93158	305.66110	1573.91296	-785.11322	137.08788	1515.13208	-833.27051	101.06369	1584.06641	-661.28461	32.08896	1496.66187	-459.60745	1775.41858	-3360.23242	2845.13306	1033.88428 
81	0.800	1407.80774	-336.77667	1728.02832	1551.04346	-338.28693	1708.85205	1395.47620	-452.29431	1632.59436	1536.37903	-466.48486	1610.21301	1464.79065	-496.95773	1501.49573	1466.06653	-558.54901	1230.56580	1456.88904	-356.98322	1431.89844	1475.55725	-312.15750	1258.05322	1532.16846	-561.45862	1335.82605	1285.93274	-421.52328	1471.71484	1203.36670	-482.98975	1284.64722	1190.94800	-527.85742	1152.91406	1168.44873	-564.06555	1027.69604	1182.71863	-550.99451	888.30475	1156.23779	-597.03943	909.20538	1147.81689	-602.06909	842.51483	1651.47656	-418.00092	1473.00244	1749.12146	-419.00974	1288.23254	1780.36548	-369.67303	1149.37158	1789.05273	-294.30234	1052.42639	1755.61536	-202.73137	957.93506	1794.14587	-237.87073	934.95239	1789.30725	-176.73003	897.08832	1358.09106	-306.72031	967.08215	1614.12756	-349.44852	945.69836	1403.62744	-527.19067	1008.80060	1515.56909	-550.74359	1008.34503	1283.82458	-304.17532	669.11078	1316.49658	-278.46036	470.09988	1321.29846	-275.15643	275.21036	1344.78748	-204.23232	64.99352	1397.84167	-232.94398	35.66629	1338.24561	-45.32874	52.56719	1658.09412	-507.16443	658.20837	1622.85461	-560.87433	455.12723	1616.95081	-681.82318	308.70868	1575.60938	-780.69745	142.59296	1516.41992	-829.20734	108.49097	1584.50342	-660.60046	32.02206	1494.83484	-450.53537	1775.04626	-3360.26782	2845.03491	1033.88586 
82	0.810	1405.98975	-327.45273	1728.88074	1549.22913	-329.01468	1709.50647	1393.43042	-442.55048	1632.97925	1534.30286	-456.78687	1610.35791	1462.45117	-486.73636	1501.57361	1464.07996	-547.26147	1230.22681	1454.87744	-346.69086	1432.31519	1473.58374	-301.01807	1258.79431	1529.56433	-550.84650	1335.15308	1283.51025	-410.96432	1471.42615	1201.12219	-471.50116	1283.39148	1189.22449	-515.43317	1151.46191	1167.16724	-550.62354	1026.00159	1181.61890	-537.57330	886.71484	1154.94556	-583.35461	907.69214	1146.48901	-588.33600	841.16736	1649.77856	-408.61951	1472.88428	1746.93762	-410.30139	1287.53882	1778.22998	-361.98917	1148.31641	1786.80957	-286.48810	1051.52429	1752.99829	-195.06190	956.98956	1791.56396	-230.05919	934.01605	1786.52344	-169.03996	896.11151	1356.06897	-294.16177	967.51520	1611.78259	-336.43411	945.30170	1400.99707	-514.79181	1009.18652	1513.00293	-538.46185	1007.39368	1281.88623	-292.36154	670.71521	1313.53723	-267.66351	471.55722	1316.24243	-266.22284	276.72568	1343.12000	-200.87415	64.73692	1395.78003	-231.87878	37.12534	1338.85486	-42.11366	46.28038	1657.58374	-494.42569	658.27075	1624.85669	-547.89990	455.77994	1618.12280	-672.47375	312.19470	1577.12439	-775.26892	148.52094	1517.50000	-823.88428	116.65208	1585.01965	-660.17682	32.16866	1492.89429	-441.60910	1775.46033	-3360.30054	2845.08301	1033.97656 
83	0.820	1404.20544	-317.99384	1729.84290	1547.36157	-319.68307	1710.24365	1391.37109	-432.76096	1633.57983	1532.21399	-447.09912	1610.72571	1460.27173	-476.29120	1501.99097	1462.18970	-535.97168	1230.06775	1452.93396	-336.53555	1433.14063	1471.54883	-289.91718	1259.85181	1526.91675	-540.33069	1334.55200	1281.05322	-400.31509	1471.37915	1199.19690	-459.02173	1282.30969	1187.78906	-501.83350	1150.03809	1165.38586	-537.56348	1024.75208	1180.64392	-523.28534	885.55377	1153.95471	-569.64252	906.48199	1145.15564	-574.29437	839.90472	1648.30261	-398.69775	1473.11523	1744.76733	-401.76617	1287.16821	1776.12122	-354.14767	1147.72290	1784.47900	-278.99670	1050.58813	1750.52075	-187.76662	956.18866	1789.03564	-222.93018	933.06012	1783.87439	-161.77301	895.26355	1353.80139	-281.67270	968.35028	1609.27795	-323.45273	945.16711	1398.73083	-502.25818	1010.47809	1510.97302	-526.16638	1006.99310	1279.69336	-281.08231	672.61035	1311.79932	-255.56093	473.53860	1310.64600	-256.53061	278.75485	1342.98865	-199.12206	65.31506	1395.40161	-230.63968	37.36286	1338.55603	-40.52252	43.06123	1657.08679	-481.11737	658.32867	1627.20349	-533.61938	456.04663	1619.42529	-661.77649	315.83978	1578.36499	-768.73932	155.01190	1518.06445	-816.97437	125.29556	1585.41272	-659.50146	32.23469	1490.80310	-432.58743	1775.60718	-3360.23511	2844.95801	1033.87207 
